<svg xmlns="http://www.w3.org/2000/svg" width="2020" height="834.831" viewBox="0 0 2020 834.831">
  <g id="Group_22" data-name="Group 22" transform="translate(-1512.959 -1272)">
    <path id="Path_125" data-name="Path 125" d="M0,0H5.312V770.12H0Z" transform="translate(2255.508 1303.859)" fill="#fff"/>
    <g id="Group_38" data-name="Group 38" transform="translate(1512.959 1272)">
      <path id="Path_89" data-name="Path 89" d="M397.38,220.6A108.791,108.791,0,1,1,288.588,111.81,108.61,108.61,0,0,1,397.38,220.6m-37.182,0c0-40.874-30.735-74.375-71.609-74.375s-71.3,33.5-71.3,74.375,30.735,74.375,71.3,74.375S360.2,261.475,360.2,220.6" transform="translate(-179.797 505.438)" fill="#fff" fill-rule="evenodd"/>
      <path id="Path_90" data-name="Path 90" d="M241.585,252.344v68.832H204.7V112.2h85.748c47.012,0,81.131,27.661,81.131,70.066,0,31.661-18.745,55.013-47.938,64.854l60.534,74.056H339.311l-56.555-68.832Zm47.629-34.118c25.82,0,46.1-13.511,46.1-35.959s-20.277-35.948-46.1-35.948H241.585v71.907Z" transform="translate(69.736 509.346)" fill="#fff" fill-rule="evenodd"/>
      <path id="Path_91" data-name="Path 91" d="M262.171,201.023H364.813v34.11H262.171V287.07H377.111v34.1H225.286V112.2H377.111V146.32H262.171Z" transform="translate(276.013 509.343)" fill="#fff" fill-rule="evenodd"/>
      <path id="Path_102" data-name="Path 102" d="M474.431,98.316,186.242,274.052l-3.273,1.964,10.524-18.823L474.431,85.875Z" transform="translate(-148.013 245.565)" fill="#fff" fill-rule="evenodd"/>
      <path id="Path_103" data-name="Path 103" d="M455.022,96.021,184.906,260.726l10.546-18.855L455.022,83.591Z" transform="translate(-128.603 222.677)" fill="#fff" fill-rule="evenodd"/>
      <path id="Path_104" data-name="Path 104" d="M435.6,93.736,186.844,245.43l10.546-18.866L435.6,81.306Z" transform="translate(-109.184 199.779)" fill="#fff" fill-rule="evenodd"/>
      <path id="Path_105" data-name="Path 105" d="M416.174,91.451,188.783,230.118l10.546-18.866L416.174,79.021Z" transform="translate(-89.755 176.886)" fill="#fff" fill-rule="evenodd"/>
      <path id="Path_106" data-name="Path 106" d="M396.754,89.176,190.721,214.805l10.546-18.866,195.487-119.2Z" transform="translate(-70.336 153.984)" fill="#fff" fill-rule="evenodd"/>
      <path id="Path_107" data-name="Path 107" d="M377.335,86.881,192.659,199.5l10.546-18.871L377.335,74.451Z" transform="translate(-50.917 131.091)" fill="#fff" fill-rule="evenodd"/>
      <path id="Path_108" data-name="Path 108" d="M357.906,84.6,194.6,184.186l10.546-18.866L357.906,72.166Z" transform="translate(-31.488 108.193)" fill="#fff" fill-rule="evenodd"/>
      <path id="Path_109" data-name="Path 109" d="M338.487,82.311,196.536,168.863l10.546-18.855,131.4-80.128Z" transform="translate(-12.069 85.3)" fill="#fff" fill-rule="evenodd"/>
      <path id="Path_110" data-name="Path 110" d="M319.058,80.026,198.475,153.551l10.546-18.866L319.058,67.6Z" transform="translate(7.36 62.407)" fill="#fff" fill-rule="evenodd"/>
      <path id="Path_111" data-name="Path 111" d="M299.639,77.741l-99.226,60.514,10.546-18.871,88.68-54.073Z" transform="translate(26.779 39.505)" fill="#fff" fill-rule="evenodd"/>
      <path id="Path_112" data-name="Path 112" d="M280.21,75.456l-77.858,47.476L212.9,104.066,280.21,63.026Z" transform="translate(46.209 16.612)" fill="#fff" fill-rule="evenodd"/>
      <path id="Path_113" data-name="Path 113" d="M260.791,73.171l-56.5,34.449,10.546-18.866,45.954-28.013Z" transform="translate(65.628 -6.281)" fill="#fff" fill-rule="evenodd"/>
      <path id="Path_114" data-name="Path 114" d="M241.361,70.886,206.229,92.308l10.546-18.866,24.586-14.986Z" transform="translate(85.057 -29.178)" fill="#fff" fill-rule="evenodd"/>
      <path id="Path_115" data-name="Path 115" d="M218.714,61.6l3.229-5.774V72.07l-13.775,8.394Z" transform="translate(104.479 -55.54)" fill="#fff" fill-rule="evenodd"/>
      <path id="Path_116" data-name="Path 116" d="M209.419,55.8v343.59L501.145,574.851Z" transform="translate(117.021 -55.799)" fill="#fff" fill-rule="evenodd"/>
    </g>
    <g id="Group_39" data-name="Group 39" transform="translate(2348.789 1533.245)">
      <path id="Path_122" data-name="Path 122" d="M11.34-87.762H32.631l34.618,53.8,34.618-53.8h21.291V26.007H103.168V-55.581L67.249-1.948H66.6L31.006-55.256V26.007H11.34Zm142.211,0h19.991V26.007H153.551Zm50.383,0h18.528L283.41-9.1V-87.762h19.666V26.007h-16.74L223.6-54.931V26.007H203.934Zm129.534,0h19.991V26.007H333.468Zm50.383,0h18.528L463.327-9.1V-87.762h19.666V26.007h-16.74L403.517-54.931V26.007H383.851ZM566.206,27.957a63.216,63.216,0,0,1-24.216-4.469A54.828,54.828,0,0,1,523.38,11.136,55.351,55.351,0,0,1,511.435-7.392a62.214,62.214,0,0,1-4.226-23.16v-.325a60.063,60.063,0,0,1,4.307-22.591A57.376,57.376,0,0,1,523.624-72.24,57.77,57.77,0,0,1,542.233-85a58.516,58.516,0,0,1,23.648-4.713,79.8,79.8,0,0,1,13.571,1.056,62.552,62.552,0,0,1,11.3,3.007,56.962,56.962,0,0,1,9.833,4.795,72.1,72.1,0,0,1,9.02,6.582L596.924-59.157A71.708,71.708,0,0,0,590.26-64.2a41.266,41.266,0,0,0-7.151-3.819,44.146,44.146,0,0,0-8.208-2.438,50.227,50.227,0,0,0-9.833-.894A33.065,33.065,0,0,0,550.522-68.1a37.938,37.938,0,0,0-11.7,8.7,40.592,40.592,0,0,0-7.8,12.758,42.222,42.222,0,0,0-2.844,15.44v.325a46.533,46.533,0,0,0,2.763,16.253,36.828,36.828,0,0,0,7.883,12.84,37.27,37.27,0,0,0,12.19,8.451,39.193,39.193,0,0,0,15.846,3.088,47.761,47.761,0,0,0,15.2-2.357A42.869,42.869,0,0,0,594.323,1.14V-20.151H565.231v-17.39h48.433V10.242a84.847,84.847,0,0,1-9.345,6.826,70.707,70.707,0,0,1-11.052,5.688,70.043,70.043,0,0,1-12.758,3.819A71.968,71.968,0,0,1,566.206,27.957ZM12.478,108.3H32.468V222.071H12.478Zm50.383,0H81.389l60.948,78.663V108.3H162V222.071h-16.74L82.527,141.133v80.938H62.861Zm118.644,0h22.1L237.9,195.742,272.033,108.3h21.616l-47.3,114.581H228.8Zm131.647,0H397.5V126.18H333.143v29.58H390.19v17.878H333.143v30.555h65.173v17.878H313.152ZM461.864,223.7a71.731,71.731,0,0,1-25.192-4.469,68.779,68.779,0,0,1-22.266-13.734l12.027-14.3a69.885,69.885,0,0,0,16.74,10.971,46.088,46.088,0,0,0,19.178,3.819q9.264,0,14.709-3.9a12.183,12.183,0,0,0,5.445-10.4v-.325a13.194,13.194,0,0,0-1.056-5.445,11.783,11.783,0,0,0-3.9-4.469,30.634,30.634,0,0,0-7.8-3.9,110.859,110.859,0,0,0-12.921-3.576,126.471,126.471,0,0,1-16.171-4.795,43.9,43.9,0,0,1-11.864-6.5,25.118,25.118,0,0,1-7.314-9.345,31.97,31.97,0,0,1-2.519-13.327v-.325a30.579,30.579,0,0,1,2.925-13.408,30.913,30.913,0,0,1,8.045-10.4,37.759,37.759,0,0,1,12.271-6.745,48.073,48.073,0,0,1,15.6-2.438,65.182,65.182,0,0,1,22.51,3.657,66.963,66.963,0,0,1,18.772,10.646l-10.727,15.115a69.73,69.73,0,0,0-15.44-8.7,41.848,41.848,0,0,0-15.44-3.007q-8.776,0-13.652,3.9a11.858,11.858,0,0,0-4.876,9.589v.325a13.881,13.881,0,0,0,1.138,5.77,11.233,11.233,0,0,0,4.144,4.551,35.226,35.226,0,0,0,8.289,3.819q5.282,1.788,13.408,3.738a127.738,127.738,0,0,1,15.846,5.038,39.526,39.526,0,0,1,11.458,6.745,26.639,26.639,0,0,1,6.907,9.264A29.871,29.871,0,0,1,502.5,189.4v.325a32.968,32.968,0,0,1-3.007,14.3,30.653,30.653,0,0,1-8.37,10.727,37.051,37.051,0,0,1-12.84,6.664A56.184,56.184,0,0,1,461.864,223.7Zm92.153-96.866H517.936V108.3h92.315V126.83H574.17v95.241H554.017ZM631.379,108.3H652.67l34.618,53.8,34.618-53.8H743.2V222.071H723.207V140.483l-35.918,53.634h-.65l-35.593-53.309v81.263H631.379Zm141.073,0H856.8V126.18H792.443v29.58H849.49v17.878H792.443v30.555h65.173v17.878H772.453Zm108.893,0h18.528l60.947,78.663V108.3h19.666V222.071h-16.74l-62.735-80.938v80.938H881.345ZM1037.7,126.83h-36.081V108.3h92.315V126.83h-36.081v95.241H1037.7ZM1154.878,223.7a71.732,71.732,0,0,1-25.192-4.469,68.782,68.782,0,0,1-22.266-13.734l12.027-14.3a69.887,69.887,0,0,0,16.74,10.971,46.088,46.088,0,0,0,19.178,3.819q9.264,0,14.709-3.9a12.183,12.183,0,0,0,5.444-10.4v-.325a13.194,13.194,0,0,0-1.056-5.445,11.784,11.784,0,0,0-3.9-4.469,30.634,30.634,0,0,0-7.8-3.9,110.858,110.858,0,0,0-12.921-3.576,126.467,126.467,0,0,1-16.171-4.795,43.9,43.9,0,0,1-11.865-6.5,25.118,25.118,0,0,1-7.314-9.345,31.97,31.97,0,0,1-2.519-13.327v-.325a30.579,30.579,0,0,1,2.926-13.408,30.911,30.911,0,0,1,8.045-10.4,37.757,37.757,0,0,1,12.271-6.745,48.073,48.073,0,0,1,15.6-2.438,65.181,65.181,0,0,1,22.51,3.657,66.964,66.964,0,0,1,18.772,10.646l-10.727,15.115a69.723,69.723,0,0,0-15.44-8.7,41.848,41.848,0,0,0-15.44-3.007q-8.776,0-13.652,3.9a11.857,11.857,0,0,0-4.876,9.589v.325a13.881,13.881,0,0,0,1.138,5.77,11.233,11.233,0,0,0,4.144,4.551,35.227,35.227,0,0,0,8.289,3.819q5.282,1.788,13.408,3.738a127.739,127.739,0,0,1,15.846,5.038,39.525,39.525,0,0,1,11.458,6.745,26.637,26.637,0,0,1,6.907,9.264,29.87,29.87,0,0,1,2.357,12.271v.325a32.967,32.967,0,0,1-3.007,14.3,30.653,30.653,0,0,1-8.37,10.727,37.05,37.05,0,0,1-12.84,6.664A56.183,56.183,0,0,1,1154.878,223.7Z" transform="translate(-11.34 89.712)" fill="#fff"/>
    </g>
  </g>
</svg>
